<svg width="368" height="298" viewBox="0 0 368 298" fill="none" xmlns="http://www.w3.org/2000/svg">
<path d="M43.0006 152.368C44.7442 231.654 108.098 294.256 186.632 295.999C188.479 296.034 190.017 294.529 190.017 292.649V283.452C264.278 283.452 324.452 223.278 324.452 149.017C324.452 74.7566 264.278 14.5824 190.017 14.5824V5.35117C190.017 3.50491 188.479 1.96637 186.632 2.00056C148.579 2.85531 114.116 18.1724 88.4731 42.6523C87.1397 43.9516 87.1397 46.0713 88.4389 47.4047L94.9692 53.935C70.6602 78.244 55.6166 111.853 55.6166 148.983H46.3854C44.5049 148.983 42.9664 150.521 43.0006 152.368Z" fill="#FFB26E" stroke="white" stroke-width="2" stroke-miterlimit="10" stroke-linecap="round" stroke-linejoin="round"/>
<mask id="mask0" mask-type="alpha" maskUnits="userSpaceOnUse" x="42" y="1" width="284" height="296">
<path d="M43.0006 172.882C44.7442 252.168 108.098 294.256 186.632 295.999C188.479 296.034 190.017 294.529 190.017 292.649V283.452C264.278 283.452 324.452 223.278 324.452 149.017C324.452 74.7566 264.278 14.5824 190.017 14.5824V5.35117C190.017 3.50491 188.479 1.96637 186.632 2.00056C148.579 2.85531 113.602 11.7099 87.9597 36.1899C86.6263 37.4891 59.4801 39.814 60.7793 41.1474V53.935C36.4703 78.244 55.6166 111.853 55.6166 148.983H46.3854C44.5049 148.983 42.9664 171.035 43.0006 172.882Z" fill="#B880FF" stroke="white" stroke-width="1.2" stroke-miterlimit="10" stroke-linecap="round" stroke-linejoin="round"/>
</mask>
<g mask="url(#mask0)">
<path d="M62.4546 54.9606L70.2499 238.936C70.4209 243.381 72.4723 253.399 86.1141 251.997L283.356 218.217C287.116 217.67 289.852 214.354 289.715 210.559L291.63 36.1562L283.253 33.0107L78.5923 40.4299C63.1726 40.3958 62.2495 48.8749 62.4546 54.9606Z" fill="black" stroke="black" stroke-width="1.2" stroke-miterlimit="10" stroke-linecap="round" stroke-linejoin="round"/>
<path d="M298.091 213.704C298.228 217.499 295.493 220.782 291.732 221.363L86.1482 251.997C81.7377 252.647 77.7717 249.33 77.6007 244.886L71.344 69.0128L292.416 56.9095L298.091 213.704Z" fill="white" stroke="black" stroke-width="1.2" stroke-miterlimit="10" stroke-linecap="round" stroke-linejoin="round"/>
<path d="M102.081 201.909L102.491 220.098L146.493 215.106L145.741 197.943L102.081 201.909Z" fill="#FFB26E"/>
<path d="M292.382 58.0378L71.3439 69.0127L70.8311 55.0291C70.6259 48.9091 75.4125 43.7806 81.4983 43.5755L291.629 36.1562L292.382 58.0378Z" fill="#FFB26E" stroke="black" stroke-width="1.2" stroke-miterlimit="10" stroke-linecap="round" stroke-linejoin="round"/>
<path d="M87.9489 61.412C90.7582 61.2595 92.902 58.6751 92.7373 55.6396C92.5725 52.604 90.1616 50.2669 87.3523 50.4193C84.543 50.5718 82.3992 53.1562 82.564 56.1918C82.7287 59.2273 85.1397 61.5645 87.9489 61.412Z" fill="black" stroke="black" stroke-width="1.2" stroke-miterlimit="10" stroke-linecap="round" stroke-linejoin="round"/>
<path d="M105.009 60.8655C107.819 60.713 109.963 58.1286 109.798 55.093C109.633 52.0575 107.222 49.7203 104.413 49.8728C101.604 50.0253 99.4597 52.6097 99.6245 55.6452C99.7893 58.6808 102.2 61.0179 105.009 60.8655Z" fill="white" stroke="black" stroke-width="1.2" stroke-miterlimit="10" stroke-linecap="round" stroke-linejoin="round"/>
<path d="M121.796 60.4554C124.605 60.3029 126.749 57.7185 126.584 54.683C126.42 51.6475 124.009 49.3103 121.199 49.4628C118.39 49.6153 116.246 52.1997 116.411 55.2352C116.576 58.2707 118.987 60.6079 121.796 60.4554Z" fill="white" stroke="black" stroke-width="1.2" stroke-miterlimit="10" stroke-linecap="round" stroke-linejoin="round"/>
</g>
<path d="M255.422 85.082L255.115 85.2872C253.473 85.2872 252.482 87.6463 252.482 89.7319C252.482 91.8516 253.815 93.5269 255.422 93.5269L260.585 93.6295V85.253L255.422 85.082Z" fill="black" stroke="black" stroke-width="1.2" stroke-miterlimit="10" stroke-linecap="round" stroke-linejoin="round"/>
<path d="M191.282 88.0907L190.974 88.2958C189.333 88.2958 188.308 90.6549 188.308 92.8089C188.308 94.9287 189.641 96.6724 191.282 96.6724L196.513 96.7749V88.2958L191.282 88.0907Z" fill="black" stroke="black" stroke-width="1.2" stroke-miterlimit="10" stroke-linecap="round" stroke-linejoin="round"/>
<path d="M111.654 93.6295L111.278 93.8689C109.363 93.8689 108.132 96.604 108.132 99.0999C108.098 101.562 109.671 103.613 111.586 103.613L117.671 103.784L117.74 93.9372L111.654 93.6295Z" fill="black" stroke="black" stroke-width="1.2" stroke-miterlimit="10" stroke-linecap="round" stroke-linejoin="round"/>
<path d="M200.582 254.596L226.669 251.04L209.54 222.525L200.582 254.596Z" fill="black" stroke="black" stroke-width="1.2" stroke-miterlimit="10" stroke-linecap="round" stroke-linejoin="round"/>
<path d="M262.089 245.159L288.176 241.603L271.047 213.089L262.089 245.159Z" fill="black" stroke="black" stroke-width="1.2" stroke-miterlimit="10" stroke-linecap="round" stroke-linejoin="round"/>
<path d="M280.655 100.57C278.569 84.2957 267.457 72.295 255.799 73.7652C244.174 75.2695 236.413 89.6635 238.498 105.938C240.584 122.212 251.696 134.213 263.354 132.743C274.979 131.273 282.74 116.844 280.655 100.57ZM261.919 121.631C256.072 122.383 250.294 114.759 248.995 104.639C247.696 94.5184 251.388 85.6975 257.234 84.9453C263.081 84.1931 268.859 91.8175 270.158 101.938C271.458 112.058 267.765 120.879 261.919 121.631Z" fill="#FFB26E"/>
<path d="M249.884 75.7823C245.678 79.133 238.703 91.1336 241.028 106.964C243.353 122.964 252.926 130.52 252.926 130.52C252.926 130.52 234.737 127.648 236.208 102.006C237.678 76.3978 249.884 75.7823 249.884 75.7823Z" fill="white"/>
<path d="M280.655 100.57C278.569 84.2957 267.457 72.295 255.799 73.7652C244.174 75.2695 236.413 89.6635 238.498 105.938C240.584 122.212 251.696 134.213 263.354 132.743C274.979 131.273 282.74 116.844 280.655 100.57ZM261.919 121.631C256.072 122.383 250.294 114.759 248.995 104.639C247.696 94.5185 251.388 85.6975 257.234 84.9453C263.081 84.1931 268.859 91.8175 270.158 101.938C271.458 112.058 267.765 120.879 261.919 121.631Z" stroke="black" stroke-width="1.2" stroke-miterlimit="10" stroke-linecap="round" stroke-linejoin="round"/>
<path d="M283.492 134.042C282.843 128.537 281.031 123.511 278.466 119.374C276.176 115.682 273.269 112.707 270.021 110.724C266.637 108.673 262.91 107.647 259.081 108.023C255.969 108.331 253.097 109.528 250.636 111.408C252.106 115.306 254.26 118.417 256.722 120.127C257.816 119.272 259.012 118.759 260.346 118.622C262.089 118.451 263.799 118.964 265.406 120.058C268.004 121.802 270.261 125.016 271.662 129.084C272.312 130.931 272.791 132.948 273.03 135.068C274.158 144.709 270.363 153.017 264.483 153.599C258.636 154.18 252.961 146.829 251.798 137.153C251.49 134.589 251.525 132.127 251.867 129.871C248.653 127.785 245.815 124.708 243.524 120.879C241.404 125.836 240.55 131.854 241.268 138.179C243.114 153.701 254.021 165.36 265.679 164.197C277.372 163.069 285.338 149.564 283.492 134.042Z" fill="#FFB26E"/>
<mask id="mask1" mask-type="alpha" maskUnits="userSpaceOnUse" x="241" y="107" width="43" height="58">
<path d="M283.492 134.042C282.843 128.537 281.031 123.511 278.466 119.374C276.176 115.682 273.269 112.707 270.021 110.724C266.637 108.673 262.91 107.647 259.081 108.023C255.969 108.331 253.097 109.528 250.636 111.408C252.106 115.306 254.26 118.417 256.722 120.127C257.816 119.272 259.012 118.759 260.346 118.622C262.089 118.451 263.799 118.964 265.406 120.058C268.004 121.802 270.261 125.016 271.662 129.084C272.312 130.931 272.791 132.948 273.03 135.068C274.158 144.709 270.363 153.017 264.483 153.599C258.636 154.18 252.961 146.829 251.798 137.153C251.49 134.589 251.525 132.127 251.867 129.871C248.653 127.785 245.815 124.708 243.524 120.879C241.404 125.836 240.55 131.854 241.268 138.179C243.114 153.701 254.021 165.36 265.679 164.197C277.372 163.069 285.338 149.564 283.492 134.042Z" fill="#B880FF"/>
</mask>
<g mask="url(#mask1)">
<path d="M277.201 157.941C277.201 157.941 282.569 148.367 281.543 136.093C280.278 121.118 271.115 111.408 271.115 111.408L283.492 117.802C283.492 117.802 288.313 139.41 285.612 145.906C282.911 152.436 277.065 162.112 277.201 157.941Z" fill="white"/>
</g>
<path d="M283.492 134.042C282.843 128.537 281.031 123.511 278.466 119.374C276.176 115.682 273.269 112.707 270.021 110.724C266.637 108.673 262.91 107.647 259.081 108.023C255.969 108.331 253.097 109.528 250.636 111.408C252.106 115.306 254.26 118.417 256.722 120.127C257.816 119.272 259.012 118.759 260.346 118.622C262.089 118.451 263.799 118.964 265.406 120.058C268.004 121.802 270.261 125.016 271.662 129.084C272.312 130.931 272.791 132.948 273.03 135.068C274.158 144.709 270.363 153.017 264.483 153.599C258.636 154.18 252.961 146.829 251.798 137.153C251.49 134.589 251.525 132.127 251.867 129.871C248.653 127.785 245.815 124.708 243.524 120.879C241.404 125.836 240.55 131.854 241.268 138.179C243.114 153.701 254.021 165.36 265.679 164.197C277.372 163.069 285.338 149.564 283.492 134.042Z" stroke="black" stroke-width="1.2" stroke-miterlimit="10" stroke-linecap="round" stroke-linejoin="round"/>
<path d="M286.843 166.317C286.159 160.505 284.21 155.24 281.407 150.966C279.834 154.864 277.509 158.112 274.637 160.436C275.458 162.522 276.039 164.847 276.347 167.309C277.475 176.95 273.646 185.258 267.799 185.84C261.953 186.421 256.277 179.07 255.115 169.394C254.807 166.727 254.875 164.129 255.251 161.804C255.935 157.701 257.576 154.351 259.901 152.47C261.03 151.547 262.295 151 263.662 150.863C265.201 150.727 266.739 151.103 268.175 151.957C270.5 150.077 272.141 146.726 272.825 142.624C269.577 140.743 266.021 139.888 262.397 140.23C259.081 140.572 256.038 141.906 253.439 143.991C250.567 146.316 248.277 149.598 246.67 153.462C244.687 158.351 243.866 164.197 244.584 170.386C246.43 185.908 257.337 197.567 268.996 196.404C280.723 195.31 288.689 181.805 286.843 166.317Z" fill="#FFB26E"/>
<mask id="mask2" mask-type="alpha" maskUnits="userSpaceOnUse" x="244" y="140" width="44" height="57">
<path d="M286.843 166.317C286.159 160.505 284.211 155.24 281.407 150.966C279.834 154.864 277.509 158.112 274.637 160.436C275.458 162.522 276.039 164.847 276.347 167.309C277.475 176.95 273.646 185.258 267.799 185.84C261.953 186.421 256.277 179.07 255.115 169.394C254.807 166.727 254.876 164.129 255.252 161.804C255.935 157.701 257.577 154.351 259.902 152.47C261.03 151.547 262.295 151 263.662 150.863C265.201 150.727 266.739 151.103 268.175 151.957C270.5 150.077 272.141 146.726 272.825 142.624C269.577 140.743 266.021 139.888 262.397 140.23C259.081 140.572 256.038 141.906 253.44 143.991C250.568 146.316 248.277 149.598 246.67 153.462C244.687 158.351 243.866 164.197 244.584 170.386C246.431 185.908 257.337 197.567 268.996 196.404C280.723 195.31 288.689 181.805 286.843 166.317Z" fill="#B880FF"/>
</mask>
<g mask="url(#mask2)">
<path d="M251.115 146.316C247.422 156.812 243.559 175.343 250.841 186.865C258.124 198.387 258.534 196.507 258.534 196.507C258.534 196.507 242.02 184.164 242.499 167.309C242.977 150.453 251.115 146.316 251.115 146.316Z" fill="white"/>
</g>
<path d="M286.843 166.317C286.159 160.505 284.21 155.24 281.407 150.966C279.834 154.864 277.509 158.112 274.637 160.436C275.458 162.522 276.039 164.847 276.347 167.309C277.475 176.95 273.646 185.258 267.799 185.84C261.953 186.421 256.277 179.07 255.115 169.394C254.807 166.727 254.875 164.129 255.251 161.804C255.935 157.701 257.576 154.351 259.901 152.47C261.03 151.547 262.295 151 263.662 150.863C265.201 150.727 266.739 151.103 268.175 151.957C270.5 150.077 272.141 146.726 272.825 142.624C269.577 140.743 266.021 139.888 262.397 140.23C259.081 140.572 256.038 141.906 253.439 143.991C250.567 146.316 248.277 149.598 246.67 153.462C244.687 158.351 243.866 164.197 244.584 170.386C246.43 185.908 257.337 197.567 268.996 196.404C280.723 195.31 288.689 181.805 286.843 166.317Z" stroke="black" stroke-width="1.2" stroke-miterlimit="10" stroke-linecap="round" stroke-linejoin="round"/>
<path d="M238.498 105.972C238.498 111.374 250.054 109.733 248.96 104.639" stroke="black" stroke-width="1.2" stroke-miterlimit="10" stroke-linecap="round" stroke-linejoin="round"/>
<path d="M270.158 101.903C270.432 106.211 280.962 105.152 280.62 100.57" stroke="black" stroke-width="1.2" stroke-miterlimit="10" stroke-linecap="round" stroke-linejoin="round"/>
<path d="M241.302 138.179C241.302 140.812 249.918 142.76 251.798 137.153" stroke="black" stroke-width="1.2" stroke-miterlimit="10" stroke-linecap="round" stroke-linejoin="round"/>
<path d="M272.996 135.068C273.68 139.478 282.569 140.572 283.492 134.042" stroke="black" stroke-width="1.2" stroke-miterlimit="10" stroke-linecap="round" stroke-linejoin="round"/>
<path d="M244.653 170.454C245.781 176.198 255.149 174.42 255.149 169.428" stroke="black" stroke-width="1.2" stroke-miterlimit="10" stroke-linecap="round" stroke-linejoin="round"/>
<path d="M276.346 167.343C277.27 174.044 287.595 171.753 286.843 166.317" stroke="black" stroke-width="1.2" stroke-miterlimit="10" stroke-linecap="round" stroke-linejoin="round"/>
<path d="M249.884 168.3C250.412 168.3 250.841 167.872 250.841 167.343C250.841 166.814 250.412 166.386 249.884 166.386C249.355 166.386 248.926 166.814 248.926 167.343C248.926 167.872 249.355 168.3 249.884 168.3Z" fill="black" stroke="black" stroke-width="1.2" stroke-miterlimit="10" stroke-linecap="round" stroke-linejoin="round"/>
<path d="M278.227 133.837C278.756 133.837 279.184 133.408 279.184 132.879C279.184 132.351 278.756 131.922 278.227 131.922C277.698 131.922 277.27 132.351 277.27 132.879C277.27 133.408 277.698 133.837 278.227 133.837Z" fill="black" stroke="black" stroke-width="1.2" stroke-miterlimit="10" stroke-linecap="round" stroke-linejoin="round"/>
<path d="M245.678 136.025C246.207 136.025 246.636 135.596 246.636 135.068C246.636 134.539 246.207 134.11 245.678 134.11C245.15 134.11 244.721 134.539 244.721 135.068C244.721 135.596 245.15 136.025 245.678 136.025Z" fill="black" stroke="black" stroke-width="1.2" stroke-miterlimit="10" stroke-linecap="round" stroke-linejoin="round"/>
<path d="M275.389 99.3392C275.918 99.3392 276.347 98.9106 276.347 98.3819C276.347 97.8532 275.918 97.4246 275.389 97.4246C274.86 97.4246 274.432 97.8532 274.432 98.3819C274.432 98.9106 274.86 99.3392 275.389 99.3392Z" fill="black" stroke="black" stroke-width="1.2" stroke-miterlimit="10" stroke-linecap="round" stroke-linejoin="round"/>
<path d="M243.182 104.57C243.711 104.57 244.14 104.142 244.14 103.613C244.14 103.084 243.711 102.656 243.182 102.656C242.654 102.656 242.225 103.084 242.225 103.613C242.225 104.142 242.654 104.57 243.182 104.57Z" fill="black" stroke="black" stroke-width="1.2" stroke-miterlimit="10" stroke-linecap="round" stroke-linejoin="round"/>
<path d="M281.612 166.249C282.141 166.249 282.569 165.82 282.569 165.292C282.569 164.763 282.141 164.334 281.612 164.334C281.083 164.334 280.655 164.763 280.655 165.292C280.655 165.82 281.083 166.249 281.612 166.249Z" fill="black" stroke="black" stroke-width="1.2" stroke-miterlimit="10" stroke-linecap="round" stroke-linejoin="round"/>
<path d="M264.722 120.639C264.722 120.639 266.91 122.315 267.32 125.358C267.902 129.495 266.602 131.512 266.602 131.512L270.774 129.7C270.774 129.7 271.97 127.854 269.714 124.332C267.423 120.776 265.713 120.024 265.713 120.024L264.722 120.639Z" fill="black"/>
<path d="M261.576 153.257C261.576 153.257 259.149 154.966 259.046 158.453C258.91 161.975 261.166 163.787 261.166 163.787L255.764 162.078C255.764 162.078 254.909 160.3 256.516 157.359C258.123 154.419 259.935 152.47 259.935 152.47L261.576 153.257Z" fill="black"/>
<path d="M263.97 150.419C263.97 150.419 266.739 150.111 270.158 146.726C272.483 144.401 272.244 142.35 272.244 142.35C272.244 142.35 273.44 142.316 272.244 145.325C271.047 148.333 268.209 152.026 268.209 152.026C268.209 152.026 267.526 151.581 265.303 151.171C263.286 150.761 263.97 150.419 263.97 150.419Z" fill="black"/>
<path d="M275.902 163.411C275.902 163.411 278.159 162.385 279.868 159.992C282.603 156.163 281.783 151.616 281.783 151.616L281.407 150.966L280.381 153.393C280.381 153.393 279.219 155.787 277.201 157.941C275.218 160.095 274.876 160.334 274.876 160.334L275.902 163.411Z" fill="black"/>
<path d="M218.087 104.433C215.899 87.4753 204.343 74.9618 192.205 76.5345C180.068 78.0731 171.999 93.1166 174.187 110.075C176.375 127.033 187.931 139.547 200.069 137.974C212.206 136.435 220.241 121.426 218.087 104.433ZM198.564 126.383C192.479 127.17 186.427 119.238 185.094 108.673C183.726 98.1084 187.59 88.9113 193.675 88.1591C199.761 87.3727 205.813 95.3048 207.146 105.869C208.514 116.4 204.684 125.597 198.564 126.383Z" fill="#FFB26E"/>
<path d="M186.051 78.6201C181.675 82.1417 173.572 96.057 177.093 112.331C180.854 129.802 189.231 135.649 189.231 135.649C189.231 135.649 170.289 132.64 171.794 105.938C173.298 79.2355 186.051 78.6201 186.051 78.6201Z" fill="white"/>
<path d="M218.087 104.433C215.899 87.4753 204.343 74.9618 192.205 76.5345C180.068 78.0731 171.999 93.1166 174.187 110.075C176.375 127.033 187.931 139.547 200.069 137.974C212.206 136.435 220.241 121.426 218.087 104.433ZM198.564 126.383C192.479 127.17 186.427 119.238 185.094 108.673C183.726 98.1084 187.59 88.9113 193.675 88.1591C199.761 87.3727 205.813 95.3048 207.146 105.869C208.514 116.4 204.684 125.597 198.564 126.383Z" stroke="black" stroke-width="1.2" stroke-miterlimit="10" stroke-linecap="round" stroke-linejoin="round"/>
<path d="M221.062 139.307C220.378 133.563 218.497 128.332 215.83 124.024C213.437 120.195 210.428 117.084 207.01 114.998C203.488 112.844 199.59 111.784 195.624 112.195C192.376 112.502 189.402 113.767 186.837 115.716C188.342 119.785 190.598 122.999 193.163 124.811C194.291 123.922 195.556 123.375 196.923 123.238C198.736 123.067 200.513 123.614 202.189 124.742C204.89 126.554 207.249 129.905 208.719 134.144C209.403 136.059 209.881 138.145 210.155 140.367C211.352 150.419 207.351 159.069 201.266 159.684C195.18 160.3 189.265 152.607 188.068 142.555C187.761 139.888 187.795 137.324 188.171 134.965C184.82 132.777 181.846 129.563 179.487 125.597C177.298 130.76 176.375 137.016 177.162 143.615C179.076 159.787 190.462 171.924 202.599 170.728C214.668 169.565 222.976 155.479 221.062 139.307Z" fill="#FFB26E"/>
<mask id="mask3" mask-type="alpha" maskUnits="userSpaceOnUse" x="176" y="112" width="46" height="59">
<path d="M221.062 139.307C220.378 133.563 218.497 128.332 215.83 124.024C213.437 120.195 210.428 117.084 207.01 114.998C203.488 112.844 199.59 111.784 195.624 112.195C192.376 112.502 189.402 113.767 186.837 115.716C188.342 119.785 190.598 122.999 193.163 124.811C194.291 123.922 195.556 123.375 196.923 123.238C198.736 123.067 200.513 123.614 202.189 124.742C204.89 126.554 207.249 129.905 208.719 134.144C209.403 136.059 209.881 138.145 210.155 140.367C211.352 150.419 207.351 159.069 201.266 159.684C195.18 160.3 189.265 152.607 188.068 142.555C187.761 139.888 187.795 137.324 188.171 134.965C184.82 132.777 181.846 129.563 179.487 125.597C177.298 130.76 176.375 137.016 177.162 143.615C179.076 159.787 190.462 171.924 202.599 170.728C214.668 169.565 222.976 155.479 221.062 139.307Z" fill="#B880FF"/>
</mask>
<g mask="url(#mask3)">
<path d="M214.497 164.231C214.497 164.231 220.07 154.248 219.01 141.495C217.711 125.905 208.172 115.784 208.172 115.784L221.061 122.451C221.061 122.451 226.087 144.948 223.284 151.752C220.446 158.488 214.326 168.574 214.497 164.231Z" fill="white"/>
</g>
<path d="M221.062 139.307C220.378 133.563 218.497 128.332 215.83 124.024C213.437 120.195 210.428 117.084 207.01 114.998C203.488 112.844 199.59 111.784 195.624 112.195C192.376 112.502 189.402 113.767 186.837 115.716C188.342 119.785 190.598 122.999 193.163 124.811C194.291 123.922 195.556 123.375 196.923 123.238C198.736 123.067 200.513 123.614 202.189 124.742C204.89 126.554 207.249 129.905 208.719 134.144C209.403 136.059 209.881 138.145 210.155 140.367C211.352 150.419 207.351 159.069 201.266 159.684C195.18 160.3 189.265 152.607 188.068 142.555C187.761 139.888 187.795 137.324 188.171 134.965C184.82 132.777 181.846 129.563 179.487 125.597C177.298 130.76 176.375 137.016 177.162 143.615C179.076 159.787 190.462 171.924 202.599 170.728C214.668 169.565 222.976 155.479 221.062 139.307Z" stroke="black" stroke-width="1.2" stroke-miterlimit="10" stroke-linecap="round" stroke-linejoin="round"/>
<path d="M224.549 172.916C223.831 166.864 221.779 161.36 218.873 156.949C217.232 160.983 214.805 164.402 211.83 166.83C212.685 168.984 213.3 171.411 213.608 174.01C214.805 184.062 210.804 192.712 204.719 193.327C198.633 193.943 192.718 186.25 191.521 176.198C191.179 173.394 191.248 170.728 191.658 168.3C192.376 164.026 194.086 160.539 196.513 158.59C197.675 157.633 199.009 157.052 200.411 156.915C202.018 156.744 203.624 157.188 205.129 158.077C207.522 156.129 209.266 152.641 209.984 148.367C206.599 146.419 202.907 145.495 199.111 145.872C195.658 146.213 192.479 147.615 189.778 149.803C186.803 152.231 184.376 155.65 182.734 159.684C180.649 164.779 179.794 170.864 180.581 177.292C182.495 193.464 193.88 205.601 206.018 204.405C218.155 203.174 226.463 189.088 224.549 172.916Z" fill="#FFB26E"/>
<mask id="mask4" mask-type="alpha" maskUnits="userSpaceOnUse" x="180" y="145" width="45" height="60">
<path d="M224.549 172.916C223.831 166.864 221.779 161.36 218.873 156.949C217.232 160.983 214.805 164.402 211.83 166.83C212.685 168.984 213.3 171.411 213.608 174.01C214.805 184.062 210.804 192.712 204.719 193.327C198.633 193.943 192.718 186.25 191.521 176.198C191.179 173.394 191.248 170.728 191.658 168.3C192.376 164.026 194.086 160.539 196.513 158.59C197.675 157.633 199.009 157.052 200.411 156.915C202.018 156.744 203.624 157.188 205.129 158.077C207.522 156.129 209.266 152.641 209.984 148.367C206.599 146.419 202.907 145.495 199.111 145.872C195.658 146.213 192.479 147.615 189.778 149.803C186.803 152.231 184.376 155.65 182.734 159.684C180.649 164.779 179.794 170.864 180.581 177.292C182.495 193.464 193.88 205.601 206.018 204.405C218.155 203.174 226.463 189.088 224.549 172.916Z" fill="#B880FF"/>
</mask>
<g mask="url(#mask4)">
<path d="M187.316 152.128C183.453 163.069 179.452 182.386 187.042 194.387C194.633 206.388 195.043 204.439 195.043 204.439C195.043 204.439 177.845 191.549 178.324 174.01C178.803 156.47 187.316 152.128 187.316 152.128Z" fill="white"/>
</g>
<path d="M224.549 172.916C223.831 166.864 221.779 161.36 218.873 156.949C217.232 160.983 214.805 164.402 211.83 166.83C212.685 168.984 213.3 171.411 213.608 174.01C214.805 184.062 210.804 192.712 204.719 193.327C198.633 193.943 192.718 186.25 191.521 176.198C191.179 173.394 191.248 170.728 191.658 168.3C192.376 164.026 194.086 160.539 196.513 158.59C197.675 157.633 199.009 157.052 200.411 156.915C202.018 156.744 203.624 157.188 205.129 158.077C207.522 156.129 209.266 152.641 209.984 148.367C206.599 146.419 202.907 145.495 199.111 145.872C195.658 146.213 192.479 147.615 189.778 149.803C186.803 152.231 184.376 155.65 182.734 159.684C180.649 164.779 179.794 170.864 180.581 177.292C182.495 193.464 193.88 205.601 206.018 204.405C218.155 203.174 226.463 189.088 224.549 172.916Z" stroke="black" stroke-width="1.2" stroke-miterlimit="10" stroke-linecap="round" stroke-linejoin="round"/>
<path d="M174.187 110.075C174.187 115.682 186.222 114.007 185.094 108.673" stroke="black" stroke-width="1.2" stroke-miterlimit="10" stroke-linecap="round" stroke-linejoin="round"/>
<path d="M207.18 105.835C207.454 110.314 218.463 109.22 218.087 104.433" stroke="black" stroke-width="1.2" stroke-miterlimit="10" stroke-linecap="round" stroke-linejoin="round"/>
<path d="M177.093 143.649C177.093 146.384 186.051 148.402 188.034 142.589" stroke="black" stroke-width="1.2" stroke-miterlimit="10" stroke-linecap="round" stroke-linejoin="round"/>
<path d="M210.121 140.401C210.839 144.983 220.104 146.111 221.061 139.341" stroke="black" stroke-width="1.2" stroke-miterlimit="10" stroke-linecap="round" stroke-linejoin="round"/>
<path d="M180.581 177.258C181.777 183.275 191.521 181.395 191.521 176.198" stroke="black" stroke-width="1.2" stroke-miterlimit="10" stroke-linecap="round" stroke-linejoin="round"/>
<path d="M186.051 175.036C186.599 175.036 187.043 174.592 187.043 174.044C187.043 173.496 186.599 173.052 186.051 173.052C185.503 173.052 185.06 173.496 185.06 174.044C185.06 174.592 185.503 175.036 186.051 175.036Z" fill="black" stroke="black" stroke-width="1.2" stroke-miterlimit="10" stroke-linecap="round" stroke-linejoin="round"/>
<path d="M215.591 139.102C216.139 139.102 216.583 138.658 216.583 138.111C216.583 137.563 216.139 137.119 215.591 137.119C215.044 137.119 214.6 137.563 214.6 138.111C214.6 138.658 215.044 139.102 215.591 139.102Z" fill="black" stroke="black" stroke-width="1.2" stroke-miterlimit="10" stroke-linecap="round" stroke-linejoin="round"/>
<path d="M181.64 141.358C182.188 141.358 182.632 140.915 182.632 140.367C182.632 139.819 182.188 139.375 181.64 139.375C181.093 139.375 180.649 139.819 180.649 140.367C180.649 140.915 181.093 141.358 181.64 141.358Z" fill="black" stroke="black" stroke-width="1.2" stroke-miterlimit="10" stroke-linecap="round" stroke-linejoin="round"/>
<path d="M212.617 103.168C213.164 103.168 213.608 102.725 213.608 102.177C213.608 101.629 213.164 101.185 212.617 101.185C212.069 101.185 211.625 101.629 211.625 102.177C211.625 102.725 212.069 103.168 212.617 103.168Z" fill="black" stroke="black" stroke-width="1.2" stroke-miterlimit="10" stroke-linecap="round" stroke-linejoin="round"/>
<path d="M179.076 108.605C179.624 108.605 180.068 108.161 180.068 107.613C180.068 107.066 179.624 106.622 179.076 106.622C178.529 106.622 178.085 107.066 178.085 107.613C178.085 108.161 178.529 108.605 179.076 108.605Z" fill="black" stroke="black" stroke-width="1.2" stroke-miterlimit="10" stroke-linecap="round" stroke-linejoin="round"/>
<path d="M201.505 125.358C201.505 125.358 203.761 127.101 204.24 130.281C204.855 134.589 203.488 136.709 203.488 136.709L207.864 134.828C207.864 134.828 209.095 132.914 206.77 129.255C204.377 125.563 202.599 124.776 202.599 124.776L201.505 125.358Z" fill="black"/>
<path d="M198.188 159.342C198.188 159.342 195.658 161.12 195.556 164.779C195.419 168.437 197.778 170.317 197.778 170.317L192.171 168.539C192.171 168.539 191.282 166.693 192.957 163.616C194.633 160.539 196.513 158.522 196.513 158.522L198.188 159.342Z" fill="black"/>
<path d="M200.718 156.368C200.718 156.368 203.59 156.06 207.18 152.505C209.608 150.077 209.368 147.957 209.368 147.957C209.368 147.957 210.599 147.889 209.368 151.034C208.138 154.18 205.163 158.009 205.163 158.009C205.163 158.009 204.445 157.53 202.12 157.12C200 156.744 200.718 156.368 200.718 156.368Z" fill="black"/>
<path d="M213.129 169.907C213.129 169.907 215.489 168.847 217.266 166.351C220.104 162.351 219.284 157.599 219.284 157.599L218.873 156.949L217.779 159.479C217.779 159.479 216.548 161.975 214.463 164.232C212.377 166.488 212.035 166.727 212.035 166.727L213.129 169.907Z" fill="black"/>
<path d="M250.089 193.293C229.335 199.071 223.728 203.174 223.728 203.174L228.583 232.064L239.695 236.065L280.654 235.654L291.664 217.91L286.433 182.899L276.141 179.207L266.329 180.198L250.089 193.293Z" fill="#FFB26E"/>
<path d="M255.115 191.31C255.115 191.31 229.917 194.797 210.668 194.148C192.547 193.532 184.273 193.977 187.726 199.003C192.376 205.772 214.429 204.576 222.053 205.294" fill="#FFB26E"/>
<path d="M255.115 191.31C255.115 191.31 229.917 194.797 210.668 194.148C192.547 193.532 184.273 193.977 187.726 199.003C192.376 205.772 214.429 204.576 222.053 205.294" stroke="black" stroke-width="1.2" stroke-miterlimit="10" stroke-linecap="round" stroke-linejoin="round"/>
<path d="M229.096 204.063C229.096 204.063 213.095 205.191 200.513 204.439C189.47 203.755 181.401 204.678 182.153 208.61C182.905 212.576 189.949 214.149 207.078 216.645C224.207 219.141 229.096 215.961 229.096 215.961" fill="#FFB26E"/>
<path d="M229.096 204.063C229.096 204.063 213.095 205.191 200.513 204.439C189.47 203.755 181.401 204.678 182.153 208.61C182.905 212.576 189.949 214.149 207.078 216.645C224.207 219.141 229.096 215.961 229.096 215.961" stroke="black" stroke-width="1.2" stroke-miterlimit="10" stroke-linecap="round" stroke-linejoin="round"/>
<path d="M281.919 234.868C281.919 234.868 263.388 239.962 230.361 240.68C200.889 241.33 186.769 234.355 187.76 229.466C188.718 224.816 223.626 230.115 230.361 228.509" fill="#FFB26E"/>
<mask id="mask5" mask-type="alpha" maskUnits="userSpaceOnUse" x="187" y="227" width="95" height="14">
<path d="M281.919 234.868C281.919 234.868 263.388 239.962 230.361 240.68C200.889 241.33 186.769 234.355 187.76 229.466C188.718 224.816 223.626 230.115 230.361 228.509" fill="#B880FF"/>
</mask>
<g mask="url(#mask5)">
<path d="M190.496 227.654C189.641 230.081 192.684 235.21 206.257 239.21C221.13 243.62 196.376 243.689 196.376 243.689C196.376 243.689 201.607 243.62 192.821 238.048C184.034 232.475 184.786 227.927 186.461 227.654C188.102 227.38 190.496 227.654 190.496 227.654Z" fill="white"/>
</g>
<path d="M281.919 234.868C281.919 234.868 263.388 239.962 230.361 240.68C200.889 241.33 186.769 234.355 187.76 229.466C188.718 224.816 223.626 230.115 230.361 228.509" stroke="black" stroke-width="1.2" stroke-miterlimit="10" stroke-linecap="round" stroke-linejoin="round"/>
<path d="M230.361 215.585C230.361 215.585 210.873 216.166 198.154 214.628C185.435 213.089 179.35 214.525 183.384 219.448C187.418 224.372 195.658 226.355 206.257 227.859C216.446 229.295 230.429 228.338 230.361 228.543" fill="#FFB26E"/>
<path d="M186.154 213.26C182.529 216.713 185.914 220.85 190.188 224.235C192.615 226.15 194.975 226.902 194.975 226.902C194.975 226.902 180.854 223.004 180.444 217.534C180.034 212.097 186.154 213.26 186.154 213.26Z" fill="white"/>
<path d="M230.361 215.585C230.361 215.585 210.873 216.166 198.154 214.628C185.435 213.089 179.35 214.525 183.384 219.448C187.418 224.372 195.658 226.355 206.257 227.859C216.446 229.295 230.429 228.338 230.361 228.543" stroke="black" stroke-width="1.2" stroke-miterlimit="10" stroke-linecap="round" stroke-linejoin="round"/>
<path d="M276.278 179.207C276.278 179.207 263.388 180.027 245.336 178.967C229.882 178.044 221.985 178.147 211.933 178.899C204.308 179.48 208.616 186.968 222.019 189.977C233.677 192.609 231.284 193.293 243.08 198.866C252.653 203.379 261.371 202.695 261.371 202.695" fill="#FFB26E"/>
<mask id="mask6" mask-type="alpha" maskUnits="userSpaceOnUse" x="208" y="178" width="69" height="25">
<path d="M276.278 179.207C276.278 179.207 263.388 180.027 245.336 178.967C229.882 178.044 221.985 178.147 211.933 178.899C204.308 179.48 208.616 186.968 222.019 189.977C233.677 192.609 231.284 193.293 243.08 198.866C252.653 203.379 261.371 202.695 261.371 202.695" fill="#B880FF"/>
</mask>
<g mask="url(#mask6)">
<path d="M211.215 177.908C207.967 180.506 216.959 188.848 225.233 190.524C231.797 191.857 204.685 189.156 204.377 183.72C204.069 178.318 211.215 177.908 211.215 177.908Z" fill="white"/>
</g>
<path d="M276.278 179.207C276.278 179.207 263.388 180.027 245.336 178.967C229.882 178.044 221.985 178.147 211.933 178.899C204.308 179.48 208.616 186.968 222.019 189.977C233.677 192.609 231.284 193.293 243.08 198.866C252.653 203.379 261.371 202.695 261.371 202.695" stroke="black" stroke-width="1.2" stroke-miterlimit="10" stroke-linecap="round" stroke-linejoin="round"/>
<path d="M303.357 178.899C303.357 178.899 313.682 184.028 315.699 202.011C317.614 219.175 311.323 227.893 311.323 227.893C311.323 227.893 302.536 230.936 295.493 232.406C285.646 234.458 280.723 235.244 280.723 235.244C280.723 235.244 290.433 226.252 286.843 202.046C284.552 186.66 275.731 179.275 275.731 179.275L303.357 178.899Z" fill="white" stroke="black" stroke-width="1.2" stroke-miterlimit="10" stroke-linecap="round" stroke-linejoin="round"/>
<path d="M302.472 222.943C304.92 222.471 306.586 220.436 306.193 218.396C305.8 216.356 303.497 215.085 301.05 215.556C298.602 216.028 296.936 218.063 297.329 220.103C297.722 222.143 300.024 223.414 302.472 222.943Z" fill="#FFB26E" stroke="black" stroke-width="1.2" stroke-miterlimit="10" stroke-linecap="round" stroke-linejoin="round"/>
<path d="M189.709 208.781C181.333 207.277 175.452 205.02 175.452 205.02" stroke="black" stroke-width="1.2" stroke-miterlimit="10" stroke-linecap="round" stroke-linejoin="round"/>
<path d="M165.093 166.044C161.674 162.727 157.913 160.095 154.049 158.18C154.152 162.59 153.468 166.762 152.1 170.352C153.776 171.48 155.451 172.813 157.024 174.318C165.058 182.113 167.93 192.199 163.417 196.815C158.938 201.464 148.75 198.9 140.749 191.105C138.185 188.609 136.134 185.874 134.698 183.139C132.236 178.523 131.552 173.942 132.954 170.693C133.296 169.907 133.775 169.189 134.356 168.608C135.929 167.001 138.151 166.249 140.749 166.317C142.254 163.377 142.664 159.24 141.946 154.658C135.518 154.111 129.638 155.855 125.569 160.026C124.372 161.257 123.381 162.625 122.629 164.129C120.509 168.232 119.996 173.189 120.919 178.386C122.184 185.532 126.219 193.088 132.715 199.379C145.604 211.892 163.315 214.593 172.273 205.362C181.196 196.165 178.016 178.557 165.093 166.044Z" fill="#FFB26E"/>
<mask id="mask7" mask-type="alpha" maskUnits="userSpaceOnUse" x="120" y="154" width="58" height="57">
<path d="M165.093 166.044C161.674 162.727 157.913 160.095 154.049 158.18C154.152 162.59 153.468 166.762 152.1 170.352C153.776 171.48 155.451 172.813 157.024 174.318C165.058 182.113 167.93 192.199 163.417 196.815C158.938 201.464 148.75 198.9 140.749 191.105C138.185 188.609 136.134 185.874 134.698 183.139C132.236 178.523 131.552 173.942 132.954 170.693C133.296 169.907 133.775 169.189 134.356 168.608C135.929 167.001 138.151 166.249 140.749 166.317C142.254 163.377 142.664 159.24 141.946 154.658C135.518 154.111 129.638 155.855 125.569 160.026C124.372 161.257 123.381 162.625 122.629 164.129C120.509 168.232 119.996 173.189 120.919 178.386C122.184 185.532 126.219 193.088 132.715 199.379C145.604 211.892 163.315 214.593 172.273 205.362C181.196 196.165 178.016 178.557 165.093 166.044Z" fill="#B880FF"/>
</mask>
<g mask="url(#mask7)">
<path d="M120.509 172.232C120.509 172.232 122.765 190.182 139.689 201.806C155.861 212.918 166.426 209.465 169.982 207.345C173.572 205.225 151.177 225.055 131.586 200.781C111.996 176.506 120.509 172.232 120.509 172.232Z" fill="white"/>
</g>
<path d="M165.093 166.044C161.674 162.727 157.913 160.095 154.049 158.18C154.152 162.59 153.468 166.762 152.1 170.352C153.776 171.48 155.451 172.813 157.024 174.318C165.058 182.113 167.93 192.199 163.417 196.815C158.938 201.464 148.75 198.9 140.749 191.105C138.185 188.609 136.134 185.874 134.698 183.139C132.236 178.523 131.552 173.942 132.954 170.693C133.296 169.907 133.775 169.189 134.356 168.608C135.929 167.001 138.151 166.249 140.749 166.317C142.254 163.377 142.664 159.24 141.946 154.658C135.518 154.111 129.638 155.855 125.569 160.026C124.372 161.257 123.381 162.625 122.629 164.129C120.509 168.232 119.996 173.189 120.919 178.386C122.184 185.532 126.219 193.088 132.715 199.379C145.604 211.892 163.315 214.593 172.273 205.362C181.196 196.165 178.016 178.557 165.093 166.044Z" stroke="black" stroke-width="1.2" stroke-miterlimit="10" stroke-linecap="round" stroke-linejoin="round"/>
<path d="M141.091 109.528C137.57 91.5097 124.27 78.9278 111.38 81.4579C98.4907 83.9879 90.9347 100.638 94.4563 118.656C97.9779 136.675 111.278 149.256 124.167 146.726C137.057 144.231 144.647 127.58 141.091 109.528ZM121.774 134.418C115.312 135.683 108.269 127.614 106.081 116.4C103.893 105.186 107.346 95.0655 113.808 93.8004C120.27 92.5354 127.313 100.604 129.501 111.819C131.689 123.033 128.236 133.153 121.774 134.418Z" fill="#FFB26E"/>
<path d="M102.491 85.2529C102.491 85.2529 93.6015 101.391 97.5334 119.614C101.602 138.589 111.722 144.709 111.722 144.709C111.722 144.709 92.6784 140.264 91.7211 112.742C90.7638 85.2187 102.491 85.2529 102.491 85.2529Z" fill="white"/>
<path d="M141.091 109.528C137.57 91.5097 124.27 78.9278 111.38 81.4579C98.4907 83.9879 90.9347 100.638 94.4563 118.656C97.9779 136.675 111.278 149.256 124.167 146.726C137.057 144.231 144.647 127.58 141.091 109.528ZM121.774 134.418C115.312 135.683 108.269 127.614 106.081 116.4C103.893 105.186 107.346 95.0655 113.808 93.8004C120.27 92.5354 127.313 100.604 129.501 111.819C131.689 123.033 128.236 133.153 121.774 134.418Z" stroke="black" stroke-width="1.2" stroke-miterlimit="10" stroke-linecap="round" stroke-linejoin="round"/>
<path d="M154.083 158.18C153.981 152.881 152.75 147.205 150.288 141.632C147.895 136.196 144.613 131.546 140.886 127.922C137.57 124.674 133.877 122.281 130.082 120.845C124.988 118.896 119.757 118.759 115.107 120.81C112.782 121.836 110.731 123.341 109.055 125.221C111.346 129.7 114.457 132.914 117.74 134.076C118.423 133.324 119.244 132.709 120.201 132.298C121.945 131.546 123.859 131.512 125.877 132.127C129.159 133.119 132.578 135.751 135.45 139.581C136.954 141.564 138.322 143.889 139.484 146.453C140.715 149.256 141.536 152.06 141.946 154.727C141.946 154.761 141.946 154.761 141.946 154.795C142.049 155.342 142.117 155.855 142.151 156.368C142.288 157.599 142.322 158.83 142.254 159.958C142.254 160.129 142.254 160.3 142.219 160.437C142.185 160.915 142.151 161.394 142.083 161.873C142.049 162.043 142.049 162.18 142.014 162.317C141.98 162.625 141.912 162.932 141.843 163.206C141.809 163.343 141.775 163.479 141.741 163.65C141.707 163.787 141.672 163.924 141.638 164.061C141.604 164.197 141.57 164.334 141.536 164.471C141.501 164.608 141.433 164.744 141.399 164.881C141.365 165.018 141.296 165.155 141.262 165.257C141.125 165.633 140.954 166.009 140.783 166.351C139.895 168.129 138.595 169.463 136.92 170.215C135.689 170.762 134.39 170.933 132.988 170.762C131.586 174.01 132.27 178.557 134.732 183.207C137.228 183.207 139.689 182.728 141.98 181.703C146.698 179.617 150.152 175.548 152.135 170.386C152.135 170.352 152.169 170.317 152.169 170.249C152.237 170.078 152.305 169.907 152.374 169.736C152.579 169.223 152.75 168.676 152.887 168.129C152.955 167.856 153.023 167.616 153.092 167.343C153.263 166.762 153.365 166.18 153.502 165.565C153.571 165.257 153.605 164.95 153.673 164.676C153.707 164.368 153.776 164.061 153.81 163.753C153.844 163.445 153.878 163.138 153.912 162.83C153.947 162.522 153.981 162.214 154.015 161.907C154.049 161.633 154.049 161.36 154.083 161.086C154.118 160.71 154.118 160.334 154.118 159.958C154.118 159.65 154.118 159.342 154.118 159.069C154.083 158.761 154.083 158.488 154.083 158.18ZM117.603 156.06C116.098 152.675 115.209 149.256 114.902 146.077C110.696 144.675 106.73 141.803 103.414 137.871C102.286 144.812 103.311 152.949 106.799 160.813C110.184 168.437 115.244 174.523 120.919 178.42C119.996 173.224 120.509 168.232 122.629 164.163C120.714 161.907 118.97 159.172 117.603 156.06Z" fill="#FFB26E"/>
<mask id="mask8" mask-type="alpha" maskUnits="userSpaceOnUse" x="102" y="119" width="53" height="65">
<path d="M154.083 158.18C153.981 152.881 152.75 147.205 150.288 141.632C147.895 136.196 144.613 131.546 140.886 127.922C137.57 124.674 133.877 122.281 130.082 120.845C124.988 118.896 119.757 118.759 115.107 120.81C112.782 121.836 110.731 123.341 109.055 125.221C111.346 129.7 114.457 132.914 117.74 134.076C118.423 133.324 119.244 132.709 120.201 132.298C121.945 131.546 123.859 131.512 125.877 132.127C129.159 133.119 132.578 135.751 135.45 139.581C136.954 141.564 138.322 143.889 139.484 146.453C140.715 149.256 141.536 152.06 141.946 154.727C141.946 154.761 141.946 154.761 141.946 154.795C142.049 155.342 142.117 155.855 142.151 156.368C142.288 157.599 142.322 158.83 142.254 159.958C142.254 160.129 142.254 160.3 142.219 160.437C142.185 160.915 142.151 161.394 142.083 161.873C142.049 162.043 142.049 162.18 142.014 162.317C141.98 162.625 141.912 162.932 141.843 163.206C141.809 163.343 141.775 163.479 141.741 163.65C141.707 163.787 141.672 163.924 141.638 164.061C141.604 164.197 141.57 164.334 141.536 164.471C141.501 164.608 141.433 164.744 141.399 164.881C141.365 165.018 141.296 165.155 141.262 165.257C141.125 165.633 140.954 166.009 140.783 166.351C139.895 168.129 138.595 169.463 136.92 170.215C135.689 170.762 134.39 170.933 132.988 170.762C131.586 174.01 132.27 178.557 134.732 183.207C137.228 183.207 139.689 182.728 141.98 181.703C146.698 179.617 150.152 175.548 152.135 170.386C152.135 170.352 152.169 170.317 152.169 170.249C152.237 170.078 152.305 169.907 152.374 169.736C152.579 169.223 152.75 168.676 152.887 168.129C152.955 167.856 153.023 167.616 153.092 167.343C153.263 166.762 153.365 166.18 153.502 165.565C153.571 165.257 153.605 164.95 153.673 164.676C153.707 164.368 153.776 164.061 153.81 163.753C153.844 163.445 153.878 163.138 153.912 162.83C153.947 162.522 153.981 162.214 154.015 161.907C154.049 161.633 154.049 161.36 154.083 161.086C154.118 160.71 154.118 160.334 154.118 159.958C154.118 159.65 154.118 159.342 154.118 159.069C154.083 158.761 154.083 158.488 154.083 158.18ZM117.603 156.06C116.098 152.675 115.209 149.256 114.902 146.077C110.696 144.675 106.73 141.803 103.414 137.871C102.286 144.812 103.311 152.949 106.799 160.813C110.184 168.437 115.244 174.523 120.919 178.42C119.996 173.224 120.509 168.232 122.629 164.163C120.714 161.907 118.97 159.172 117.603 156.06Z" fill="#B880FF"/>
</mask>
<g mask="url(#mask8)">
<path d="M134.356 122.896C134.356 122.896 147.416 136.196 150.254 150.009C153.468 165.565 148.681 176.403 148.681 176.403C148.681 176.403 160.819 162.454 151.006 140.948C141.194 119.443 134.356 122.896 134.356 122.896Z" fill="white"/>
</g>
<path d="M154.083 158.18C153.981 152.881 152.75 147.205 150.288 141.632C147.895 136.196 144.613 131.546 140.886 127.922C137.57 124.674 133.877 122.281 130.082 120.845C124.988 118.896 119.757 118.759 115.107 120.81C112.782 121.836 110.731 123.341 109.055 125.221C111.346 129.7 114.457 132.914 117.74 134.076C118.423 133.324 119.244 132.709 120.201 132.298C121.945 131.546 123.859 131.512 125.877 132.127C129.159 133.119 132.578 135.751 135.45 139.581C136.954 141.564 138.322 143.889 139.484 146.453C140.715 149.256 141.536 152.06 141.946 154.727C141.946 154.761 141.946 154.761 141.946 154.795C142.049 155.342 142.117 155.855 142.151 156.368C142.288 157.599 142.322 158.83 142.254 159.958C142.254 160.129 142.254 160.3 142.219 160.437C142.185 160.915 142.151 161.394 142.083 161.873C142.049 162.043 142.049 162.18 142.014 162.317C141.98 162.625 141.912 162.932 141.843 163.206C141.809 163.343 141.775 163.479 141.741 163.65C141.707 163.787 141.672 163.924 141.638 164.061C141.604 164.197 141.57 164.334 141.536 164.471C141.501 164.608 141.433 164.744 141.399 164.881C141.365 165.018 141.296 165.155 141.262 165.257C141.125 165.633 140.954 166.009 140.783 166.351C139.895 168.129 138.595 169.463 136.92 170.215C135.689 170.762 134.39 170.933 132.988 170.762C131.586 174.01 132.27 178.557 134.732 183.207C137.228 183.207 139.689 182.728 141.98 181.703C146.698 179.617 150.152 175.548 152.135 170.386C152.135 170.352 152.169 170.317 152.169 170.249C152.237 170.078 152.305 169.907 152.374 169.736C152.579 169.223 152.75 168.676 152.887 168.129C152.955 167.856 153.023 167.616 153.092 167.343C153.263 166.762 153.365 166.18 153.502 165.565C153.571 165.257 153.605 164.95 153.673 164.676C153.707 164.368 153.776 164.061 153.81 163.753C153.844 163.445 153.878 163.138 153.912 162.83C153.947 162.522 153.981 162.214 154.015 161.907C154.049 161.633 154.049 161.36 154.083 161.086C154.118 160.71 154.118 160.334 154.118 159.958C154.118 159.65 154.118 159.342 154.118 159.069C154.083 158.761 154.083 158.488 154.083 158.18ZM117.603 156.06C116.098 152.675 115.209 149.256 114.902 146.077C110.696 144.675 106.73 141.803 103.414 137.871C102.286 144.812 103.311 152.949 106.799 160.813C110.184 168.437 115.244 174.523 120.919 178.42C119.996 173.224 120.509 168.232 122.629 164.163C120.714 161.907 118.97 159.172 117.603 156.06Z" stroke="black" stroke-width="1.2" stroke-miterlimit="10" stroke-linecap="round" stroke-linejoin="round"/>
<path d="M106.765 160.813C109.431 166.009 119.517 160.471 117.569 156.026" stroke="black" stroke-width="1.2" stroke-miterlimit="10" stroke-linecap="round" stroke-linejoin="round"/>
<path d="M139.45 146.384C141.57 151.684 152.716 148.607 150.254 141.598" stroke="black" stroke-width="1.2" stroke-miterlimit="10" stroke-linecap="round" stroke-linejoin="round"/>
<path d="M132.681 199.413C137.091 203.174 143.895 194.866 140.749 191.105" stroke="black" stroke-width="1.2" stroke-miterlimit="10" stroke-linecap="round" stroke-linejoin="round"/>
<path d="M157.024 174.318C160.716 177.908 169.059 170.454 165.092 166.01" stroke="black" stroke-width="1.2" stroke-miterlimit="10" stroke-linecap="round" stroke-linejoin="round"/>
<path d="M94.4563 118.691C95.3452 122.554 105.705 122.452 106.047 116.434" stroke="black" stroke-width="1.2" stroke-miterlimit="10" stroke-linecap="round" stroke-linejoin="round"/>
<path d="M129.501 111.818C130.151 115.579 141.98 115.374 141.091 109.562" stroke="black" stroke-width="1.2" stroke-miterlimit="10" stroke-linecap="round" stroke-linejoin="round"/>
<path d="M135.04 194.729C135.568 194.729 135.997 194.3 135.997 193.772C135.997 193.243 135.568 192.814 135.04 192.814C134.511 192.814 134.082 193.243 134.082 193.772C134.082 194.3 134.511 194.729 135.04 194.729Z" fill="black" stroke="black" stroke-width="1.2" stroke-miterlimit="10" stroke-linecap="round" stroke-linejoin="round"/>
<path d="M110.765 157.53C111.294 157.53 111.722 157.102 111.722 156.573C111.722 156.044 111.294 155.616 110.765 155.616C110.236 155.616 109.808 156.044 109.808 156.573C109.808 157.102 110.236 157.53 110.765 157.53Z" fill="black" stroke="black" stroke-width="1.2" stroke-miterlimit="10" stroke-linecap="round" stroke-linejoin="round"/>
<path d="M99.5848 114.998C100.113 114.998 100.542 114.57 100.542 114.041C100.542 113.512 100.113 113.083 99.5848 113.083C99.056 113.083 98.6274 113.512 98.6274 114.041C98.6274 114.57 99.056 114.998 99.5848 114.998Z" fill="black" stroke="black" stroke-width="1.2" stroke-miterlimit="10" stroke-linecap="round" stroke-linejoin="round"/>
<path d="M135.518 108.776C136.047 108.776 136.476 108.347 136.476 107.818C136.476 107.29 136.047 106.861 135.518 106.861C134.99 106.861 134.561 107.29 134.561 107.818C134.561 108.347 134.99 108.776 135.518 108.776Z" fill="black" stroke="black" stroke-width="1.2" stroke-miterlimit="10" stroke-linecap="round" stroke-linejoin="round"/>
<path d="M144.852 143.376C145.381 143.376 145.809 142.947 145.809 142.418C145.809 141.89 145.381 141.461 144.852 141.461C144.323 141.461 143.895 141.89 143.895 142.418C143.895 142.947 144.323 143.376 144.852 143.376Z" fill="black" stroke="black" stroke-width="1.2" stroke-miterlimit="10" stroke-linecap="round" stroke-linejoin="round"/>
<path d="M159.793 169.634C160.322 169.634 160.751 169.205 160.751 168.676C160.751 168.148 160.322 167.719 159.793 167.719C159.265 167.719 158.836 168.148 158.836 168.676C158.836 169.205 159.265 169.634 159.793 169.634Z" fill="black" stroke="black" stroke-width="1.2" stroke-miterlimit="10" stroke-linecap="round" stroke-linejoin="round"/>
<path d="M123.894 133.426C123.86 133.392 127.484 133.734 129.501 138.418C130.629 141.085 130.698 144.128 130.151 144.265C130.151 144.265 132.339 143.034 134.082 141.085C135.792 139.136 135.484 139.512 135.484 139.512C135.484 139.512 133.193 136.264 129.501 133.803C125.808 131.341 125.808 132.059 125.808 132.059L123.894 133.426Z" fill="black"/>
<path d="M134.732 155C134.732 155 137.536 155.923 139.108 159.479C140.715 163.138 139.006 166.522 139.006 166.522L140.715 166.317C140.715 166.317 142.356 163.479 142.22 159.889C142.117 156.3 141.878 154.658 141.878 154.658C141.878 154.658 140.271 154.317 137.672 154.556C136.852 154.658 134.732 155 134.732 155Z" fill="black"/>
<path d="M137.467 169.873C137.467 169.873 134.151 173.087 135.86 177.566C137.536 182.044 140.749 181.942 140.749 181.942C140.749 181.942 137.501 183.207 135.279 182.899C132.954 182.591 132.202 178.215 132.27 175.617C132.339 173.018 132.954 170.693 132.954 170.693L137.467 169.873Z" fill="black"/>
<path d="M162.015 197.943C162.015 197.943 160.75 191.754 168.819 193.395C175.076 194.695 178.187 202.353 174.802 205.362C172.717 207.174 170.871 206.832 170.871 206.832" stroke="black" stroke-width="1.2" stroke-miterlimit="10" stroke-linecap="round" stroke-linejoin="round"/>
<path d="M221.506 230.868L224.138 196.541L189.709 208.781L221.506 230.868Z" fill="black" stroke="black" stroke-width="1.2" stroke-miterlimit="10" stroke-linecap="round" stroke-linejoin="round"/>
<path d="M213.505 219.756C213.266 219.756 212.993 219.653 212.787 219.482L207.864 214.764C207.454 214.388 207.454 213.739 207.83 213.328C208.206 212.918 208.856 212.918 209.266 213.294L213.471 217.328L217.471 213.431C217.882 213.021 218.531 213.055 218.907 213.465C219.318 213.875 219.284 214.525 218.873 214.901L214.155 219.482C214.018 219.653 213.745 219.756 213.505 219.756Z" fill="#FFB26E"/>
<path d="M218.634 210.183C218.36 210.183 218.087 210.08 217.882 209.841L214.087 205.772L210.052 209.26C209.642 209.636 208.992 209.602 208.616 209.157C208.24 208.713 208.274 208.097 208.719 207.721L213.505 203.584C213.916 203.208 214.565 203.242 214.941 203.652L219.42 208.439C219.796 208.849 219.796 209.499 219.386 209.875C219.113 210.08 218.873 210.183 218.634 210.183Z" fill="#FFB26E"/>
<path d="M117.124 103.784C119.239 103.784 120.953 101.58 120.953 98.8605C120.953 96.1414 119.239 93.9371 117.124 93.9371C115.009 93.9371 113.295 96.1414 113.295 98.8605C113.295 101.58 115.009 103.784 117.124 103.784Z" fill="#FFB26E" stroke="black" stroke-width="1.2" stroke-miterlimit="10" stroke-linecap="round" stroke-linejoin="round"/>
<path d="M196.439 96.7543C198.243 96.5808 199.525 94.5508 199.3 92.2202C199.076 89.8895 197.432 88.1408 195.627 88.3143C193.823 88.4878 192.542 90.5178 192.766 92.8485C192.99 95.1791 194.635 96.9279 196.439 96.7543Z" fill="#FFB26E" stroke="black" stroke-width="1.2" stroke-miterlimit="10" stroke-linecap="round" stroke-linejoin="round"/>
<path d="M260.502 93.6093C262.288 93.4376 263.557 91.4395 263.336 89.1464C263.116 86.8534 261.489 85.1336 259.704 85.3053C257.918 85.477 256.649 87.4751 256.87 89.7682C257.09 92.0613 258.717 93.781 260.502 93.6093Z" fill="#FFB26E" stroke="black" stroke-width="1.2" stroke-miterlimit="10" stroke-linecap="round" stroke-linejoin="round"/>
<path d="M324.452 149.017C324.452 74.7566 264.278 14.5824 190.017 14.5824" stroke="white" stroke-width="2" stroke-miterlimit="10" stroke-linecap="round" stroke-linejoin="round"/>
</svg>
